<svg xmlns="http://www.w3.org/2000/svg" xmlns:xlink="http://www.w3.org/1999/xlink" viewBox="0 0 251.78 251.92"><defs><style>.cls-1,.cls-7{fill:none;}.cls-2{clip-path:url(#clip-path);}.cls-3{fill:#f2f2f3;}.cls-4{fill:#fff;}.cls-5{fill:#cccccb;}.cls-6{fill:#b3b4b4;}.cls-7{stroke:#999;stroke-miterlimit:10;}.cls-8{fill:#ffc627;}</style><clipPath id="clip-path"><rect class="cls-1" width="250" height="250"/></clipPath></defs><title>announcements</title><g id="Layer_2" data-name="Layer 2"><g id="Layer_1-2" data-name="Layer 1"><g class="cls-2"><path class="cls-3" d="M0,0V250H128.23L61.39,205.9a7.19,7.19,0,0,1-4.19-2.1L25.3,171.9a7.53,7.53,0,0,1,0-10.63l7.7-7.7a7.51,7.51,0,0,1,10.63,0l.37.36L96.8,46.87a7.26,7.26,0,0,1,5.87-4.4A8.45,8.45,0,0,1,110.73,45l4,3.67a3.65,3.65,0,0,1,1.46,1.83L184.8,118a8.84,8.84,0,0,1,1.88,2.77L250,162.51V0ZM144.1,61.53a4,4,0,0,1-4,3.67,3.94,3.94,0,0,1-3.67-3.67l.73-27.86a3.85,3.85,0,1,1,7.7.36Zm9.53,17.24a3.85,3.85,0,0,1-2.56-6.6L165,57.87a3.89,3.89,0,0,1,5.5,5.5l-14.3,14.3A3.34,3.34,0,0,1,153.63,78.77Zm44.74,8.8a3.77,3.77,0,0,1-3.67,4l-27.5.73a3.67,3.67,0,0,1-3.67-3.66,3.78,3.78,0,0,1,3.67-4l27.87-.73C196.9,83.9,198.73,85.73,198.37,87.57Z"/><path class="cls-4" d="M136.4,61.53l.73-27.86a3.85,3.85,0,1,1,7.7.36l-.73,27.5a4,4,0,0,1-4,3.67A3.94,3.94,0,0,1,136.4,61.53Z"/><path class="cls-4" d="M151.07,77.67a4,4,0,0,1,0-5.5L165,57.87a3.89,3.89,0,0,1,5.5,5.5l-14.3,14.3a3.34,3.34,0,0,1-2.57,1.1A4,4,0,0,1,151.07,77.67Z"/><path class="cls-4" d="M167.2,84.63l27.87-.73c1.83,0,3.66,1.83,3.3,3.67a3.77,3.77,0,0,1-3.67,4l-27.5.73a3.67,3.67,0,0,1-3.67-3.66A3.78,3.78,0,0,1,167.2,84.63Z"/><path class="cls-5" d="M175.22,250h-47L61.39,205.9a8,8,0,0,0,1.31.1,8.08,8.08,0,0,0,5.5-2.2l7.7-7.7a8,8,0,0,0,0-11l-.37-.37.33-.16Z"/><path class="cls-6" d="M250,162.51V250H175.22L75.86,184.57,99,173l14.67,14.67a14.71,14.71,0,0,0,10.26,4.4,13.88,13.88,0,0,0,10.27-4.4l15.4-15.4A14.71,14.71,0,0,0,154,162a13.34,13.34,0,0,0-4.4-10.27l-2.2-2.2L183,131.93a9.13,9.13,0,0,0,4.4-5.86,10.13,10.13,0,0,0-.69-5.3Z"/><path class="cls-4" d="M187.37,126.07a9.13,9.13,0,0,1-4.4,5.86l-35.57,17.6,2.2,2.2A13.34,13.34,0,0,1,154,162a14.71,14.71,0,0,1-4.4,10.27l-15.4,15.4a13.88,13.88,0,0,1-10.27,4.4,14.71,14.71,0,0,1-10.26-4.4L99,173,75.86,184.57l-.33.16.37.37a8,8,0,0,1,0,11l-7.7,7.7a8.08,8.08,0,0,1-5.5,2.2,8,8,0,0,1-1.31-.1,7.19,7.19,0,0,1-4.19-2.1L25.3,171.9a7.53,7.53,0,0,1,0-10.63l7.7-7.7a7.51,7.51,0,0,1,10.63,0l.37.36L96.8,46.87a7.26,7.26,0,0,1,5.87-4.4A8.45,8.45,0,0,1,110.73,45l4,3.67a3.65,3.65,0,0,1,1.46,1.83L184.8,118a8.84,8.84,0,0,1,1.88,2.77A10.13,10.13,0,0,1,187.37,126.07Z"/><line class="cls-7" x1="251.5" y1="163.5" x2="250" y2="162.51"/><line class="cls-7" x1="186.68" y1="120.77" x2="184" y2="119"/><line class="cls-7" x1="177.5" y1="251.5" x2="175.22" y2="250"/><line class="cls-7" x1="75.86" y1="184.57" x2="75" y2="184"/><line class="cls-7" x1="130.5" y1="251.5" x2="128.23" y2="250"/><line class="cls-7" x1="61.39" y1="205.9" x2="57" y2="203"/><path class="cls-8" d="M198.37,87.57a3.77,3.77,0,0,1-3.67,4l-27.5.73a3.67,3.67,0,0,1-3.67-3.66,3.78,3.78,0,0,1,3.67-4l27.87-.73C196.9,83.9,198.73,85.73,198.37,87.57Z"/><path class="cls-8" d="M170.5,63.37l-14.3,14.3a3.34,3.34,0,0,1-2.57,1.1,3.85,3.85,0,0,1-2.56-6.6L165,57.87a3.89,3.89,0,0,1,5.5,5.5Z"/><path class="cls-8" d="M144.83,34l-.73,27.5a4,4,0,0,1-4,3.67,3.94,3.94,0,0,1-3.67-3.67l.73-27.86a3.85,3.85,0,1,1,7.7.36Z"/><path class="cls-8" d="M186.68,120.77A8.84,8.84,0,0,0,184.8,118L116.23,50.53a3.65,3.65,0,0,0-1.46-1.83l-4-3.67a8.45,8.45,0,0,0-8.06-2.56,7.26,7.26,0,0,0-5.87,4.4L44,153.93l-.37-.36a7.51,7.51,0,0,0-10.63,0l-7.7,7.7a7.53,7.53,0,0,0,0,10.63l31.9,31.9a7.19,7.19,0,0,0,4.19,2.1,8,8,0,0,0,1.31.1,8.08,8.08,0,0,0,5.5-2.2l7.7-7.7a8,8,0,0,0,0-11l-.37-.37.33-.16L99,173l14.67,14.67a14.71,14.71,0,0,0,10.26,4.4,13.88,13.88,0,0,0,10.27-4.4l15.4-15.4A14.71,14.71,0,0,0,154,162a13.34,13.34,0,0,0-4.4-10.27l-2.2-2.2L183,131.93a9.13,9.13,0,0,0,4.4-5.86A10.13,10.13,0,0,0,186.68,120.77ZM62.33,198.3l-31.9-31.9,7.7-7.7,2.2,2.2L70,190.6Zm81.4-31.53-15.4,15.4a7.34,7.34,0,0,1-9.9,0L105.6,169.33l34.1-16.86,4,4a6.07,6.07,0,0,1,1.84,4.77A7.6,7.6,0,0,1,143.73,166.77ZM69.3,179.23l-9.9-9.9,5.13-10.63c1.1-1.83,0-4-1.83-5.13s-4,0-5.13,1.83l-4,8.43-4-4,54.27-110c.36,0,.73,0,1.46.73l2.94,2.94L64.9,140.73c-1.1,1.84,0,4,1.83,5.14a2.8,2.8,0,0,0,1.84.36,3.53,3.53,0,0,0,3.3-2.2L114,59l64.54,64.53a2.25,2.25,0,0,1,.36,1.47Z"/></g></g></g></svg>