<svg xmlns="http://www.w3.org/2000/svg" xmlns:xlink="http://www.w3.org/1999/xlink" viewBox="0 0 251.77 250.92"><defs><style>.cls-1,.cls-7{fill:none;}.cls-2{clip-path:url(#clip-path);}.cls-3{fill:#f2f2f3;}.cls-4{fill:#b3b4b4;}.cls-5{fill:#fff;}.cls-6{fill:#cccccb;}.cls-7{stroke:#999;stroke-miterlimit:10;}.cls-8{fill:#ff7f32;}</style><clipPath id="clip-path"><rect class="cls-1" width="250" height="250"/></clipPath></defs><title>clubs</title><g id="Layer_2" data-name="Layer 2"><g id="Layer_1-2" data-name="Layer 1"><g class="cls-2"><path class="cls-3" d="M250,0V116.18l-35.25-22.7A24.61,24.61,0,0,0,196,81.41h0l-43.53-28a34.19,34.19,0,1,0-43.7,52.1,52.28,52.28,0,0,0-25.6,21.87,25.63,25.63,0,0,0-4.88-2.79,24,24,0,0,0,8.61-18.62,24.67,24.67,0,0,0-49.33,0,24,24,0,0,0,8.6,18.62A35.65,35.65,0,0,0,25,157.13v13l2.33,1.63c7.91,5.59,20.47,8.61,34.44,8.61a85.37,85.37,0,0,0,22-2.88L195.73,250H0V0Z"/><path class="cls-4" d="M250,151.52V250H195.73L83.81,177.52l.53-.14c11.4,5.35,27,8.61,43.28,8.61s31.87-3.26,43.28-8.61c6.51,2.09,14.42,3,22.57,3,13.73,0,26.29-3.26,34.44-8.61L230,170.4v-13a36.42,36.42,0,0,0-11-26.18Z"/><path class="cls-4" d="M177.41,124.56l-4.88,2.79a52.32,52.32,0,0,0-25.6-21.87,34,34,0,0,0,11.53-13.11l11.25,6.94a24.48,24.48,0,0,0,7.7,25.25Z"/><path class="cls-5" d="M219,131.19h0a35.18,35.18,0,0,0-9.44-6.62,24,24,0,0,0,8.61-18.62A24.66,24.66,0,0,0,196,81.41h0a23.42,23.42,0,0,0-2.53-.13,24.68,24.68,0,0,0-23.76,18,24.48,24.48,0,0,0,7.7,25.25l-4.88,2.79a52.32,52.32,0,0,0-25.6-21.87A34.21,34.21,0,1,0,93.64,77.09a34.43,34.43,0,0,0,15.13,28.39,52.28,52.28,0,0,0-25.6,21.87,25.63,25.63,0,0,0-4.88-2.79,24,24,0,0,0,8.61-18.62,24.67,24.67,0,0,0-49.33,0,24,24,0,0,0,8.6,18.62A35.65,35.65,0,0,0,25,157.13v13l2.33,1.63c7.91,5.59,20.47,8.61,34.44,8.61a85.37,85.37,0,0,0,22-2.88l.53-.14c11.4,5.35,27,8.61,43.28,8.61s31.87-3.26,43.28-8.61c6.51,2.09,14.42,3,22.57,3,13.73,0,26.29-3.26,34.44-8.61L230,170.4v-13A36.42,36.42,0,0,0,219,131.19Z"/><path class="cls-6" d="M250,116.18v35.34l-31-20.33h0a35.18,35.18,0,0,0-9.44-6.62,24,24,0,0,0,8.61-18.62,24.58,24.58,0,0,0-3.38-12.46Z"/><path class="cls-6" d="M196,81.41a23.42,23.42,0,0,0-2.53-.13,24.68,24.68,0,0,0-23.76,18l-11.25-6.94a34.2,34.2,0,0,0-6-39Z"/><line class="cls-7" x1="250.5" y1="116.5" x2="250" y2="116.18"/><line class="cls-7" x1="214.75" y1="93.48" x2="196.01" y2="81.41"/><line class="cls-7" x1="152.47" y1="53.38" x2="141" y2="46"/><line class="cls-7" x1="196.5" y1="250.5" x2="195.73" y2="250"/><line class="cls-7" x1="83.81" y1="177.52" x2="83" y2="177"/><line class="cls-7" x1="251.5" y1="152.5" x2="250" y2="151.52"/><line class="cls-7" x1="218.96" y1="131.18" x2="208" y2="124"/><line class="cls-7" x1="176.5" y1="103.5" x2="169.71" y2="99.31"/><line class="cls-7" x1="158.46" y1="92.37" x2="153" y2="89"/><path class="cls-8" d="M219,131.19h0a35.18,35.18,0,0,0-9.44-6.62,24,24,0,0,0,8.61-18.62A24.66,24.66,0,0,0,196,81.41h0a23.42,23.42,0,0,0-2.53-.13,24.68,24.68,0,0,0-23.76,18,24.48,24.48,0,0,0,7.7,25.25l-4.88,2.79a52.32,52.32,0,0,0-25.6-21.87A34.21,34.21,0,1,0,93.64,77.09a34.43,34.43,0,0,0,15.13,28.39,52.28,52.28,0,0,0-25.6,21.87,25.63,25.63,0,0,0-4.88-2.79,24,24,0,0,0,8.61-18.62,24.67,24.67,0,0,0-49.33,0,24,24,0,0,0,8.6,18.62A35.65,35.65,0,0,0,25,157.13v13l2.33,1.63c7.91,5.59,20.47,8.61,34.44,8.61a85.37,85.37,0,0,0,22-2.88l.53-.14c11.4,5.35,27,8.61,43.28,8.61s31.87-3.26,43.28-8.61c6.51,2.09,14.42,3,22.57,3,13.73,0,26.29-3.26,34.44-8.61L230,170.4v-13A36.42,36.42,0,0,0,219,131.19ZM61.53,91.05a14.66,14.66,0,0,1,0,29.32,14.75,14.75,0,0,1-14.66-14.66A14.6,14.6,0,0,1,61.53,91.05Zm13.73,62.59v15.59a83,83,0,0,1-13.49,1.17c-10.48,0-20.25-2.1-26.76-5.59v-7.68a26.91,26.91,0,0,1,26.76-26.76,25.56,25.56,0,0,1,16.52,5.82A53.64,53.64,0,0,0,75.26,153.64ZM103,76.85a24.44,24.44,0,1,1,24.43,24.44A24.24,24.24,0,0,1,103,76.85Zm66.78,90.06c-10,5.81-25.59,9.3-42.35,9.3s-32.11-3.49-42.35-9.3v-13a42.35,42.35,0,0,1,84.7,0ZM193,91.05a14.66,14.66,0,1,1-14.66,14.66A14.59,14.59,0,0,1,193,91.05Zm26.76,73.76c-6.51,3.49-16.29,5.59-26.76,5.59a82.91,82.91,0,0,1-13.49-1.17V153.64a53.91,53.91,0,0,0-3-17.45A26,26,0,0,1,193,130.37a26.77,26.77,0,0,1,26.76,26.76Z"/></g></g></g></svg>