<svg xmlns="http://www.w3.org/2000/svg" xmlns:xlink="http://www.w3.org/1999/xlink" viewBox="0 0 253.77 252.92"><defs><style>.cls-1,.cls-7{fill:none;}.cls-2{clip-path:url(#clip-path);}.cls-3{fill:#f2f2f3;}.cls-4{fill:#b3b4b4;}.cls-5{fill:#cccccb;}.cls-6{fill:#fff;}.cls-7{stroke:#999;stroke-miterlimit:10;}.cls-8{fill:#00a3e0;}</style><clipPath id="clip-path"><rect class="cls-1" width="250" height="250"/></clipPath></defs><title>events</title><g id="Layer_2" data-name="Layer 2"><g id="Layer_1-2" data-name="Layer 1"><g class="cls-2"><path class="cls-3" d="M250,0V81.21L195.79,45.79h0a12.32,12.32,0,0,0-11.08-7H172.47v-4.9a4.91,4.91,0,1,0-9.81,0v4.9H74.34v-4.9a4.91,4.91,0,1,0-9.81,0v4.9H52.29A12.31,12.31,0,0,0,40,51.1V173.71A12.3,12.3,0,0,0,50.1,185.8L148.66,250H0V0Z"/><path class="cls-4" d="M250,225.17V250H148.66L50.1,185.8a12.14,12.14,0,0,0,2.19.2H184.71a12,12,0,0,0,4.21-.75Z"/><path class="cls-5" d="M250,81.21v144l-61.08-39.92A12.3,12.3,0,0,0,197,173.71V51.1a12.14,12.14,0,0,0-1.21-5.31Z"/><path class="cls-6" d="M197,51.1V173.71a12.3,12.3,0,0,1-8.08,11.54,12,12,0,0,1-4.21.75H52.29a12.14,12.14,0,0,1-2.19-.2A12.3,12.3,0,0,1,40,173.71V51.1A12.31,12.31,0,0,1,52.29,38.81H64.53v-4.9a4.91,4.91,0,1,1,9.81,0v4.9h88.32v-4.9a4.91,4.91,0,1,1,9.81,0v4.9h12.24a12.32,12.32,0,0,1,11.08,7h0A12.14,12.14,0,0,1,197,51.1Z"/><line class="cls-7" x1="253.5" y1="83.5" x2="250" y2="81.21"/><line class="cls-7" x1="195.79" y1="45.78" x2="190" y2="42"/><line class="cls-7" x1="250.5" y1="225.5" x2="250" y2="225.17"/><line class="cls-7" x1="188.92" y1="185.25" x2="187" y2="184"/><line class="cls-7" x1="50.1" y1="185.8" x2="43.5" y2="181.5"/><line class="cls-7" x1="152.5" y1="252.5" x2="148.66" y2="250"/><path class="cls-8" d="M167.56,29a4.9,4.9,0,0,0-4.9,4.91V53.53a4.91,4.91,0,1,0,9.81,0V33.91A4.91,4.91,0,0,0,167.56,29ZM69.44,29a4.91,4.91,0,0,0-4.91,4.91V53.53a4.91,4.91,0,1,0,9.81,0V33.91A4.9,4.9,0,0,0,69.44,29ZM192.09,68.25H44.91a4.91,4.91,0,1,0,0,9.81H192.09a4.91,4.91,0,1,0,0-9.81Zm-142.28,0v9.81H187.19V68.25ZM162.66,48.62v4.91a4.91,4.91,0,1,0,9.81,0V48.62Zm-98.13,0v4.9a4.91,4.91,0,1,0,9.81,0v-4.9C70.71,48.62,67.41,48.62,64.53,48.63Zm131.26-2.84h0a12.32,12.32,0,0,0-11.08-7H52.29A12.31,12.31,0,0,0,40,51.1V173.71A12.3,12.3,0,0,0,50.1,185.8a12.14,12.14,0,0,0,2.19.2H184.71a12,12,0,0,0,4.21-.75A12.3,12.3,0,0,0,197,173.71V51.1A12.14,12.14,0,0,0,195.79,45.79Zm-146,5.31a2.48,2.48,0,0,1,2.48-2.47s4.66,0,12.24,0v4.9a4.91,4.91,0,1,0,9.81,0v-4.9h88.32v4.91a4.91,4.91,0,1,0,9.81,0V48.62h12.24a2.49,2.49,0,0,1,2.48,2.48V68.25H49.81ZM187.19,173.71a2.48,2.48,0,0,1-2.48,2.48H52.29a2.48,2.48,0,0,1-2.48-2.48V78.06H187.19Z"/><circle class="cls-8" cx="69.44" cy="117.31" r="4.91"/><circle class="cls-8" cx="69.44" cy="136.94" r="4.91"/><circle class="cls-8" cx="69.44" cy="156.56" r="4.91"/><circle class="cls-8" cx="147.94" cy="97.69" r="4.91"/><circle class="cls-8" cx="147.94" cy="117.31" r="4.91"/><circle class="cls-8" cx="147.94" cy="136.94" r="4.91"/><circle class="cls-8" cx="147.94" cy="156.56" r="4.91"/><circle class="cls-8" cx="167.56" cy="97.69" r="4.91"/><circle class="cls-8" cx="167.56" cy="117.31" r="4.91"/><circle class="cls-8" cx="167.56" cy="136.94" r="4.91"/><circle class="cls-8" cx="108.69" cy="97.69" r="4.91"/><circle class="cls-8" cx="108.69" cy="117.31" r="4.91"/><circle class="cls-8" cx="108.69" cy="136.94" r="4.91"/><circle class="cls-8" cx="108.69" cy="156.56" r="4.91"/><circle class="cls-8" cx="89.06" cy="97.69" r="4.91"/><circle class="cls-8" cx="89.06" cy="117.31" r="4.91"/><circle class="cls-8" cx="89.06" cy="136.94" r="4.91"/><circle class="cls-8" cx="89.06" cy="156.56" r="4.91"/><circle class="cls-8" cx="128.31" cy="97.69" r="4.91"/><circle class="cls-8" cx="128.31" cy="117.31" r="4.91"/><circle class="cls-8" cx="128.31" cy="136.94" r="4.91"/><circle class="cls-8" cx="128.31" cy="156.56" r="4.91"/></g></g></g></svg>