<svg xmlns="http://www.w3.org/2000/svg" xmlns:xlink="http://www.w3.org/1999/xlink" viewBox="0 0 252.77 250.92"><defs><style>.cls-1,.cls-7{fill:none;}.cls-2{clip-path:url(#clip-path);}.cls-3{fill:#f2f2f3;}.cls-4{fill:#b3b4b4;}.cls-5{fill:#cccccb;}.cls-6{fill:#fff;}.cls-7{stroke:#999;stroke-miterlimit:10;}</style><clipPath id="clip-path"><rect class="cls-1" width="250" height="250"/></clipPath></defs><title>jobs</title><g id="Layer_2" data-name="Layer 2"><g id="Layer_1-2" data-name="Layer 1"><g class="cls-2"><path class="cls-3" d="M250,0V106.87L191.83,69a19.81,19.81,0,0,0-16.61-10.83L138.71,34.37a19.77,19.77,0,0,0-14.28-6.08H94.57A19.88,19.88,0,0,0,74.71,48.18v9.94H44.86A19.88,19.88,0,0,0,25,78v79.51A19.86,19.86,0,0,0,41.41,177.1L153.73,250H0V0Z"/><path class="cls-4" d="M250,106.87v119l-74.4-48.52A19.87,19.87,0,0,0,194,157.52V78a19.73,19.73,0,0,0-2.17-9Z"/><path class="cls-4" d="M175.22,58.15l-1.08,0H144.29V48.18a19.85,19.85,0,0,0-5.58-13.81Z"/><path class="cls-5" d="M250,225.87V250H153.73L41.41,177.1a18.68,18.68,0,0,0,3.45.31H174.14c.49,0,1,0,1.46-.06Z"/><path class="cls-6" d="M194,78v79.51a19.87,19.87,0,0,1-18.4,19.83c-.48,0-1,.06-1.46.06H44.86a18.68,18.68,0,0,1-3.45-.31A19.86,19.86,0,0,1,25,157.52V78A19.88,19.88,0,0,1,44.86,58.12H74.71V48.18A19.88,19.88,0,0,1,94.57,28.29h29.86a19.9,19.9,0,0,1,19.86,19.89v9.94h29.85l1.08,0A19.9,19.9,0,0,1,194,78Z"/><line class="cls-7" x1="252.5" y1="108.5" x2="250" y2="106.87"/><line class="cls-7" x1="191.83" y1="68.98" x2="175.22" y2="58.15"/><line class="cls-7" x1="138.71" y1="34.37" x2="132" y2="30"/><line class="cls-7" x1="252.5" y1="227.5" x2="250" y2="225.87"/><line class="cls-7" x1="175.6" y1="177.35" x2="172" y2="175"/><line class="cls-7" x1="154.5" y1="250.5" x2="153.73" y2="250"/><line class="cls-7" x1="41.41" y1="177.1" x2="32" y2="171"/><path d="M191.83,69a19.81,19.81,0,0,0-16.61-10.83l-1.08,0H144.29V48.18a19.9,19.9,0,0,0-19.86-19.89H94.57A19.88,19.88,0,0,0,74.71,48.18v9.94H44.86A19.88,19.88,0,0,0,25,78v79.51A19.86,19.86,0,0,0,41.41,177.1a18.68,18.68,0,0,0,3.45.31H174.14c.49,0,1,0,1.46-.06A19.87,19.87,0,0,0,194,157.52V78A19.73,19.73,0,0,0,191.83,69ZM84.65,48.18a9.92,9.92,0,0,1,9.92-9.94h29.86a9.94,9.94,0,0,1,9.92,9.94v9.94H84.65Zm99.41,109.34a9.94,9.94,0,0,1-9.92,9.95H44.86a9.93,9.93,0,0,1-9.92-9.95V119A35.9,35.9,0,0,0,61,130.19H84.65v2.49a9.92,9.92,0,0,0,9.92,9.94h29.86a9.94,9.94,0,0,0,9.92-9.94v-2.49H158A35.9,35.9,0,0,0,184.06,119ZM94.59,132.68V117.76h29.82v14.92Zm89.47-38.53A26.1,26.1,0,0,1,158,120.25H134.35v-2.49a9.92,9.92,0,0,0-9.92-9.94H94.57a9.94,9.94,0,0,0-9.92,9.94v2.49H61a26.08,26.08,0,0,1-26.08-26.1V78a9.94,9.94,0,0,1,9.92-10H174.14a9.93,9.93,0,0,1,9.92,10Z"/></g></g></g></svg>