<svg xmlns="http://www.w3.org/2000/svg" xmlns:xlink="http://www.w3.org/1999/xlink" viewBox="0 0 252.8 253.9"><defs><style>.cls-1,.cls-7{fill:none;}.cls-2{clip-path:url(#clip-path);}.cls-3{fill:#cccccb;}.cls-4{fill:#b3b4b4;}.cls-5{fill:#f2f2f3;}.cls-6{fill:#fff;}.cls-7{stroke:#666766;stroke-miterlimit:10;}.cls-8{fill:#8c1d40;}</style><clipPath id="clip-path"><rect class="cls-1" width="250" height="250"/></clipPath></defs><title>networking</title><g id="Layer_2" data-name="Layer 2"><g id="Layer_1-2" data-name="Layer 1"><g class="cls-2"><path class="cls-3" d="M250,162.68V250H181.7l-70-51c.37,0,.74.06,1.11.06h0a11.15,11.15,0,0,0,7.94-3.28l3.56-3.56a11.38,11.38,0,0,0,10.35,6.84h0a11.15,11.15,0,0,0,7.94-3.28L185,153.51a43.12,43.12,0,0,0,11.95-22.62l3.77-3.77,2.94,2.94a3.78,3.78,0,0,0,2.65,1.13,4.38,4.38,0,0,0,.51,0Z"/><path class="cls-4" d="M250,104.4v58.28l-43.21-31.53a3.86,3.86,0,0,0,2.16-1.09l30-30.09A3.7,3.7,0,0,0,240,97Z"/><path class="cls-4" d="M250,91.67V104.4L240,97h0a3.62,3.62,0,0,0-1.08-2.38l-41.32-41.3Z"/><path class="cls-5" d="M250,0V91.67L197.58,53.35l-4-4a3.73,3.73,0,0,0-5.34,0L158.36,79.54a3.78,3.78,0,0,0,0,5.32l2.32,2.31-6.16,6.16h-10a40.14,40.14,0,0,0-17.85,3.77,40.1,40.1,0,0,0-17-3.77h-10l-6.16-6.16,2.31-2.31a3.77,3.77,0,0,0,0-5.33L65.76,49.37a3.74,3.74,0,0,0-5.34,0L15.11,94.67a3.76,3.76,0,0,0,0,5.33h0l30.16,30.09a3.77,3.77,0,0,0,5.33,0l2.94-2.94,3.77,3.77a43,43,0,0,0,11.87,22.53l10,10.51a3.81,3.81,0,0,0,1.24.85,11.05,11.05,0,0,0,10.56,12.87,11.32,11.32,0,0,0,10.67,10.66A11.36,11.36,0,0,0,111.73,199l70,51H0V0Z"/><path class="cls-6" d="M240,97h0A3.7,3.7,0,0,1,238.9,100l-30,30.09a3.86,3.86,0,0,1-2.16,1.09,4.38,4.38,0,0,1-.51,0,3.78,3.78,0,0,1-2.65-1.13l-2.94-2.94-3.77,3.77A43.12,43.12,0,0,1,185,153.51l-42.26,42.26a11.15,11.15,0,0,1-7.94,3.28h0a11.38,11.38,0,0,1-10.35-6.84l-3.56,3.56a11.15,11.15,0,0,1-7.94,3.28h0c-.37,0-.74,0-1.11-.06a11.36,11.36,0,0,1-10.12-10.65,11.32,11.32,0,0,1-10.67-10.66,11.05,11.05,0,0,1-10.56-12.87,3.81,3.81,0,0,1-1.24-.85l-10-10.51a43,43,0,0,1-11.87-22.53l-3.77-3.77-2.94,2.94a3.77,3.77,0,0,1-5.33,0L15.11,100h0a3.76,3.76,0,0,1,0-5.33L60.42,49.35a3.74,3.74,0,0,1,5.34,0L95.84,79.53a3.77,3.77,0,0,1,0,5.33l-2.31,2.31,6.16,6.16h10a40.1,40.1,0,0,1,17,3.77,40.14,40.14,0,0,1,17.85-3.77h10l6.16-6.16-2.32-2.31a3.78,3.78,0,0,1,0-5.32l29.88-30.16a3.73,3.73,0,0,1,5.34,0l4,4,41.32,41.3A3.62,3.62,0,0,1,240,97Z"/><line class="cls-7" x1="252.5" y1="93.5" x2="250" y2="91.67"/><line class="cls-7" x1="197.57" y1="53.34" x2="193" y2="50"/><line class="cls-7" x1="251.5" y1="105.5" x2="250" y2="104.4"/><line class="cls-7" x1="239.98" y1="97.03" x2="210" y2="75"/><line class="cls-7" x1="252.5" y1="164.5" x2="250" y2="162.68"/><line class="cls-7" x1="206.79" y1="131.15" x2="197" y2="124"/><line class="cls-7" x1="186.5" y1="253.5" x2="181.7" y2="250"/><line class="cls-7" x1="111.73" y1="198.99" x2="109" y2="197"/><path class="cls-8" d="M100.53,121a11.31,11.31,0,0,1-16,0h0a3.77,3.77,0,0,0-5.33,5.33,18.87,18.87,0,0,0,26.66,0,3.77,3.77,0,0,0-5.33-5.33Z"/><path class="cls-8" d="M238.9,94.65l-41.32-41.3-4-4a3.73,3.73,0,0,0-5.34,0L158.36,79.54a3.78,3.78,0,0,0,0,5.32l2.32,2.31-6.16,6.16h-10a40.14,40.14,0,0,0-17.85,3.77,40.1,40.1,0,0,0-17-3.77h-10l-6.16-6.16,2.31-2.31a3.77,3.77,0,0,0,0-5.33L65.76,49.37a3.74,3.74,0,0,0-5.34,0L15.11,94.67a3.76,3.76,0,0,0,0,5.33h0l30.16,30.09a3.77,3.77,0,0,0,5.33,0l2.94-2.94,3.77,3.77a43,43,0,0,0,11.87,22.53l10,10.51a3.81,3.81,0,0,0,1.24.85,11.05,11.05,0,0,0,10.56,12.87,11.32,11.32,0,0,0,10.67,10.66A11.36,11.36,0,0,0,111.73,199c.37,0,.74.06,1.11.06h0a11.15,11.15,0,0,0,7.94-3.28l3.56-3.56a11.38,11.38,0,0,0,10.35,6.84h0a11.15,11.15,0,0,0,7.94-3.28L185,153.51a43.12,43.12,0,0,0,11.95-22.62l3.77-3.77,2.94,2.94a3.78,3.78,0,0,0,2.65,1.13,4.38,4.38,0,0,0,.51,0,3.86,3.86,0,0,0,2.16-1.09l30-30.09A3.7,3.7,0,0,0,240,97h0A3.62,3.62,0,0,0,238.9,94.65Zm-191,27.44L23.11,97.33l40-40L87.85,82.18Zm26.64,26.08a35.63,35.63,0,0,1-10-19.69,3.74,3.74,0,0,0-1-2.07l-4.6-4.6L88.19,92.49l7.27,7.26a3.74,3.74,0,0,0,2.66,1.11H109.7a32.52,32.52,0,0,1,23.22,9.68l15.73,14.24a3.65,3.65,0,0,1,1.08,2.61,3.82,3.82,0,0,1-3.77,3.8,3.76,3.76,0,0,1-2.68-1.13L129.8,117.21l-.06,0a3.77,3.77,0,0,0-.54-.34,4.17,4.17,0,0,0-.69-.43,3.29,3.29,0,0,0-.61-.12,3.54,3.54,0,0,0-.85-.16,3.14,3.14,0,0,0-.61.12,3.68,3.68,0,0,0-.8.17,5,5,0,0,0-.56.38,3.49,3.49,0,0,0-.65.43L83.91,158Zm116.18-21.76a3.69,3.69,0,0,0-1.06,2.07,35.62,35.62,0,0,1-10,19.69l-42.27,42.26a3.69,3.69,0,0,1-2.61,1.08,3.76,3.76,0,0,1-2.65-1.12,3.83,3.83,0,0,1-1.12-2.65,3.63,3.63,0,0,1,1.08-2.62l2.46-2.46a3.65,3.65,0,0,0,.86-1.44l9.48-9.47a3.77,3.77,0,0,0-5.24-5.43l-.09.09-24,24a3.64,3.64,0,0,1-2.61,1.07,3.81,3.81,0,0,1-3.77-3.77,3.69,3.69,0,0,1,1.07-2.64l24-24a3.77,3.77,0,0,0-5.33-5.33l-24,24a3.69,3.69,0,0,1-2.61,1.08,3.8,3.8,0,0,1-2.65-1.12,3.85,3.85,0,0,1-1.12-2.65,3.68,3.68,0,0,1,1.08-2.64l23.94-24a3.77,3.77,0,0,0-5.33-5.33l-24,24a3.64,3.64,0,0,1-2.61,1.07,3.81,3.81,0,0,1-3.77-3.77,3.65,3.65,0,0,1,1.09-2.64l38.31-38.63L138,135.44a11.12,11.12,0,0,0,7.94,3.29h0a11.39,11.39,0,0,0,11.29-11.31,11.24,11.24,0,0,0-3.42-8.11l-15.73-14.23a40.17,40.17,0,0,0-3.4-3,37,37,0,0,1,9.77-1.23h11.58a3.78,3.78,0,0,0,2.67-1.11L166,92.49l29.35,29.32Zm15.53-4.33-39.92-39.9,24.56-24.81,40,40Z"/></g></g></g></svg>