<svg xmlns="http://www.w3.org/2000/svg" xmlns:xlink="http://www.w3.org/1999/xlink" viewBox="0 0 253.77 256.92"><defs><style>.cls-1,.cls-7{fill:none;}.cls-2{clip-path:url(#clip-path);}.cls-3{fill:#f2f2f3;}.cls-4{fill:#cccccb;}.cls-5{fill:#b3b4b4;}.cls-6{fill:#fff;}.cls-7{stroke:#999;stroke-miterlimit:10;}.cls-8{fill:#5c6670;}</style><clipPath id="clip-path"><rect class="cls-1" width="250" height="250"/></clipPath></defs><title>resources</title><g id="Layer_2" data-name="Layer 2"><g id="Layer_1-2" data-name="Layer 1"><g class="cls-2"><path class="cls-3" d="M250,0V71.53L207,43.75a4.07,4.07,0,0,0-4-3.72H80.82A24,24,0,0,0,66.41,83.3H63a24.07,24.07,0,0,0-.81,48.13q-.86.7-1.65,1.5a23.85,23.85,0,0,0-7,17A24.14,24.14,0,0,0,76.14,174l15.46,9.94v1.59l1.33-.73L194.39,250H0V0Z"/><path class="cls-4" d="M250,205.25V250H194.39L92.93,184.78l17.51-9.63,18.84,10.36V174h70.39a4.12,4.12,0,0,0,1.33-.22Z"/><path class="cls-4" d="M91.6,174v9.89L76.14,174c.5,0,1,.05,1.51.05Z"/><path class="cls-5" d="M250,71.53V205.25l-49-31.43a4.08,4.08,0,0,0,2.74-3.85v-2.62a4.08,4.08,0,0,0-2.05-3.54,16,16,0,0,1-8.11-13.88,15.79,15.79,0,0,1,4.65-11.25,16.05,16.05,0,0,1,3.45-2.61,4.07,4.07,0,0,0,2.06-3.54v-2.59a4.07,4.07,0,0,0-4.07-4.07H189.21v-1.08a4.07,4.07,0,0,0-2.06-3.54A16,16,0,0,1,179,107.36a15.83,15.83,0,0,1,4.65-11.24,16.22,16.22,0,0,1,3.45-2.61A4.07,4.07,0,0,0,189.21,90V88.2h13.72A4.07,4.07,0,0,0,207,84.13V81.51A4.06,4.06,0,0,0,204.94,78a16,16,0,0,1-8.1-13.89,15.79,15.79,0,0,1,4.65-11.25,16.05,16.05,0,0,1,3.45-2.61A4.07,4.07,0,0,0,207,46.69V44.1c0-.12,0-.24,0-.35Z"/><path class="cls-6" d="M201.49,52.84a15.79,15.79,0,0,0-4.65,11.25A16,16,0,0,0,204.94,78,4.06,4.06,0,0,1,207,81.51v2.62a4.07,4.07,0,0,1-4.07,4.07H189.21V90a4.07,4.07,0,0,1-2.07,3.54,16.22,16.22,0,0,0-3.45,2.61A15.83,15.83,0,0,0,179,107.36a16,16,0,0,0,8.11,13.89,4.07,4.07,0,0,1,2.06,3.54v1.08h10.46a4.07,4.07,0,0,1,4.07,4.07v2.59a4.07,4.07,0,0,1-2.06,3.54,16.05,16.05,0,0,0-3.45,2.61,15.79,15.79,0,0,0-4.65,11.25,16,16,0,0,0,8.11,13.88,4.08,4.08,0,0,1,2.05,3.54V170a4.08,4.08,0,0,1-2.74,3.85,4.12,4.12,0,0,1-1.33.22H129.28v11.47l-18.84-10.36-17.51,9.63-1.33.73V174H77.65c-.51,0-1,0-1.51-.05a24.14,24.14,0,0,1-22.61-24.06,23.85,23.85,0,0,1,7-17q.8-.8,1.65-1.5A24.07,24.07,0,0,1,63,83.3h3.38A24,24,0,0,1,80.82,40H202.93a4.07,4.07,0,0,1,4,3.72c0,.11,0,.23,0,.35v2.59a4.07,4.07,0,0,1-2.06,3.54A16.05,16.05,0,0,0,201.49,52.84Z"/><line class="cls-7" x1="206.98" y1="43.75" x2="203.5" y2="41.5"/><line class="cls-7" x1="251.5" y1="72.5" x2="250" y2="71.53"/><line class="cls-7" x1="201" y1="173.82" x2="200.5" y2="173.5"/><line class="cls-7" x1="253.5" y1="207.5" x2="250" y2="205.25"/><line class="cls-7" x1="204.5" y1="256.5" x2="194.39" y2="250"/><line class="cls-7" x1="92.93" y1="184.78" x2="91.6" y2="183.92"/><line class="cls-7" x1="76.14" y1="173.98" x2="64.5" y2="166.5"/><path class="cls-8" d="M204.94,50.23A4.07,4.07,0,0,0,207,46.69V44.1c0-.12,0-.24,0-.35a4.07,4.07,0,0,0-4-3.72H80.82A24,24,0,0,0,66.41,83.3H63a24.07,24.07,0,0,0-.81,48.13q-.86.7-1.65,1.5a23.85,23.85,0,0,0-7,17A24.14,24.14,0,0,0,76.14,174c.5,0,1,.05,1.51.05H91.6v11.48l1.33-.73,17.51-9.63,18.84,10.36V174h70.39a4.12,4.12,0,0,0,1.33-.22,4.08,4.08,0,0,0,2.74-3.85v-2.62a4.08,4.08,0,0,0-2.05-3.54,16,16,0,0,1-8.11-13.88,15.79,15.79,0,0,1,4.65-11.25,16.05,16.05,0,0,1,3.45-2.61,4.07,4.07,0,0,0,2.06-3.54v-2.59a4.07,4.07,0,0,0-4.07-4.07H189.21v-1.08a4.07,4.07,0,0,0-2.06-3.54A16,16,0,0,1,179,107.36a15.83,15.83,0,0,1,4.65-11.24,16.22,16.22,0,0,1,3.45-2.61A4.07,4.07,0,0,0,189.21,90V88.2h13.72A4.07,4.07,0,0,0,207,84.13V81.51A4.06,4.06,0,0,0,204.94,78a16,16,0,0,1-8.1-13.89,15.79,15.79,0,0,1,4.65-11.25A16.05,16.05,0,0,1,204.94,50.23ZM47.14,107.36A15.91,15.91,0,0,1,63,91.45H176.92a23.84,23.84,0,0,0-6,15.91,24.14,24.14,0,0,0,6.08,16H63.11A16,16,0,0,1,47.14,107.36Zm74,64.39-10.71-5.88-10.7,5.88V154h21.41ZM191.45,134a24.05,24.05,0,0,0,.07,31.89H129.28V154h47.8a4.07,4.07,0,0,0,0-8.14H80.45a4.07,4.07,0,0,0,0,8.14H91.6V165.9H77.65a16,16,0,0,1-16-16A15.91,15.91,0,0,1,77.57,134ZM80.9,80.06a16,16,0,0,1-16-16A15.91,15.91,0,0,1,80.82,48.17H194.71a23.86,23.86,0,0,0-6,15.92,24.13,24.13,0,0,0,6.07,16Z"/><path class="cls-8" d="M162.54,111.46a4.07,4.07,0,1,0,0-8.14H65.92a4.07,4.07,0,0,0,0,8.14Z"/><path class="cls-8" d="M83.71,68.18h96.62a4.07,4.07,0,0,0,0-8.14H83.71a4.07,4.07,0,1,0,0,8.14Z"/></g></g></g></svg>