<svg xmlns="http://www.w3.org/2000/svg" xmlns:xlink="http://www.w3.org/1999/xlink" viewBox="0 0 251 252"><defs><style>.cls-1{fill:none;}.cls-2{clip-path:url(#clip-path);}.cls-3{fill:#e6e6e6;}.cls-4{fill:#cccccb;}.cls-5{fill:#b3b4b4;}.cls-6{fill:#78be20;}</style><clipPath id="clip-path"><rect class="cls-1" x="0.5" y="0.5" width="250" height="250"/></clipPath></defs><title>scholarships</title><g id="Layer_2" data-name="Layer 2"><g id="Layer_1-2" data-name="Layer 1"><g class="cls-2"><path class="cls-3" d="M250,0V89.16L154.76,23.53c-.16-.29-.33-.58-.52-.86a14.17,14.17,0,0,0-9.65-5.84L97.43,12.56A12.72,12.72,0,0,0,86,17.73a12.82,12.82,0,0,0-1.79,12.35l.67,2a13.76,13.76,0,0,0-1.8,6.74v9a26.1,26.1,0,0,1-2.47,11A12.29,12.29,0,0,1,75,64.89,6.31,6.31,0,0,0,69.58,62H47.8A15.15,15.15,0,0,0,32.52,77.24v47.61a15.05,15.05,0,0,0,14.83,15.27H69.8a89.31,89.31,0,0,0-8.53,34.81c0,29.1,24.36,52.95,54.8,54.49l30,20.58H0V0Z"/><path class="cls-4" d="M250,183.31V250H146.08l-30-20.58c1,.05,2.09.08,3.14.08,31.89,0,57.94-24.48,57.94-54.57,0-17.88-8.88-40.82-21.73-56.52Z"/><path class="cls-4" d="M250,89.16v43.15L157.7,69h0a22.89,22.89,0,0,0-10.87-8.62l8.76-26.28a12.93,12.93,0,0,0-.83-10.59Z"/><path class="cls-5" d="M250,132.31v51l-94.58-64.9h0c-.39-.48-.77-.94-1.17-1.41v-.68l6.52-32.56a23.28,23.28,0,0,0-.23-8.76,21.93,21.93,0,0,0-2.83-6Z"/><path class="cls-1" d="M177.15,174.93c0,30.09-26.05,54.57-57.94,54.57-1,0-2.1,0-3.14-.08-30.44-1.54-54.8-25.39-54.8-54.49a89.31,89.31,0,0,1,8.53-34.81H47.35a15.05,15.05,0,0,1-14.83-15.27V77.24A15.15,15.15,0,0,1,47.8,62H69.58A6.31,6.31,0,0,1,75,64.89a12.29,12.29,0,0,0,5.61-6.07,26.1,26.1,0,0,0,2.47-11v-9a13.76,13.76,0,0,1,1.8-6.74l-.67-2A12.82,12.82,0,0,1,86,17.73a12.72,12.72,0,0,1,11.46-5.17l47.16,4.27a14.17,14.17,0,0,1,9.65,5.84c.19.28.36.57.52.86a12.93,12.93,0,0,1,.83,10.59L146.83,60.4A22.89,22.89,0,0,1,157.7,69h0a21.93,21.93,0,0,1,2.83,6,23.28,23.28,0,0,1,.23,8.76l-6.52,32.56V117c.4.47.78.93,1.17,1.41h0C168.27,134.11,177.15,157.05,177.15,174.93Z"/><line class="cls-1" x1="250.5" y1="89.5" x2="250" y2="89.16"/><line class="cls-1" x1="154.76" y1="23.53" x2="154" y2="23"/><line class="cls-1" x1="251" y1="133" x2="250" y2="132.31"/><line class="cls-1" x1="157.7" y1="69.02" x2="146" y2="61"/><line class="cls-1" x1="251" y1="184" x2="250" y2="183.31"/><line class="cls-1" x1="155.41" y1="118.4" x2="149" y2="114"/><line class="cls-1" x1="149" y1="252" x2="146.08" y2="250"/><line class="cls-1" x1="116.07" y1="229.42" x2="114" y2="228"/><path class="cls-6" d="M136.28,169.54a12.36,12.36,0,0,0-3.82-4.49,15.57,15.57,0,0,0-5.39-2.92l-1.35-.68-3.37-1.12V147.08a4,4,0,0,1,3.37,1.57,7.63,7.63,0,0,1,1.57,4.94v.68h9.21v-.68a19.56,19.56,0,0,0-1.12-6.28,16.84,16.84,0,0,0-3.37-4.5,10.77,10.77,0,0,0-4.94-2.69,11.78,11.78,0,0,0-4.72-.9v-4.71h-5.61v4.71a11.85,11.85,0,0,0-4.72.9,22.64,22.64,0,0,0-5.16,2.69,11.81,11.81,0,0,0-3.59,4.5,15,15,0,0,0-1.35,6.28,17.15,17.15,0,0,0,1.35,6.74,12.24,12.24,0,0,0,3.81,4.49,37.55,37.55,0,0,0,5.17,2.92l1.35.45,3.14,1.12v15.5a5.88,5.88,0,0,1-4.72-2.47,10.23,10.23,0,0,1-1.79-6.74v-.67h-9.44v.67a25.14,25.14,0,0,0,1.13,7.19,17.47,17.47,0,0,0,3.59,5.39,21.83,21.83,0,0,0,5.39,3.37l5.61,1.12v4.72h5.62v-4.72a19.11,19.11,0,0,0,5.16-1.12,16.18,16.18,0,0,0,5.39-3.15,15.33,15.33,0,0,0,3.6-4.94,19.36,19.36,0,0,0,1.34-7.18A17.14,17.14,0,0,0,136.28,169.54ZM116.74,159h0l-1.35-.22-2-1.35a6.14,6.14,0,0,1-1.57-1.79,4.56,4.56,0,0,1-.67-2.48,4.87,4.87,0,0,1,1.79-4.49,6.41,6.41,0,0,1,3.82-1.57Zm9.66,23.81h0a7.61,7.61,0,0,1-4.27,2V170.66h.22l1.13.45,2.47,1.35,1.57,2a6.22,6.22,0,0,1,.67,2.92A6.64,6.64,0,0,1,126.4,182.79Z"/><path class="cls-6" d="M155.42,118.41h0c-.39-.48-.77-.94-1.17-1.41v-.68l6.52-32.56a23.28,23.28,0,0,0-.23-8.76,21.93,21.93,0,0,0-2.83-6h0a22.89,22.89,0,0,0-10.87-8.62l8.76-26.28a12.93,12.93,0,0,0-.83-10.59c-.16-.29-.33-.58-.52-.86a14.17,14.17,0,0,0-9.65-5.84L97.43,12.56A12.72,12.72,0,0,0,86,17.73a12.82,12.82,0,0,0-1.79,12.35l.67,2a13.76,13.76,0,0,0-1.8,6.74v9a26.1,26.1,0,0,1-2.47,11A12.29,12.29,0,0,1,75,64.89,6.31,6.31,0,0,0,69.58,62H47.8A15.15,15.15,0,0,0,32.52,77.24v47.61a15.05,15.05,0,0,0,14.83,15.27H69.8a89.31,89.31,0,0,0-8.53,34.81c0,29.1,24.36,52.95,54.8,54.49,1,.05,2.09.08,3.14.08,31.89,0,57.94-24.48,57.94-54.57C177.15,157.05,168.27,134.11,155.42,118.41Zm-92.13,9.13H47.8a2.59,2.59,0,0,1-2.7-2.69V77.24a2.6,2.6,0,0,1,2.7-2.7H63.29ZM95.85,25.14h.45l46.94,4.26h.45v.45L134,59.05H114.49V44A18.44,18.44,0,0,0,96.3,25.59h-.45Zm-20,53A25,25,0,0,0,92.26,63.76a39,39,0,0,0,3.37-15.94v-9a.6.6,0,0,1,.67-.68,5.56,5.56,0,0,1,5.62,5.62V65.34a6.42,6.42,0,0,0,6.29,6.28h31.21a9.37,9.37,0,0,1,9,6.74,7.28,7.28,0,0,1,0,3.15l-6.51,32.56c0,.9-.45,3.14-6.29,3.14H75.87Zm43.34,138.78c-24.93,0-45.36-18.86-45.36-42,0-13.48,6.73-31.67,16.39-45.14H135.6a22.33,22.33,0,0,0,10.78-2.47c10.56,13.7,18.19,33,18.19,47.61C164.57,198.06,144.36,216.92,119.21,216.92Z"/></g></g></g></svg>